<?xml version="1.0" encoding="utf-8"?>
<!-- Generator: Adobe Illustrator 19.1.0, SVG Export Plug-In . SVG Version: 6.00 Build 0)  -->
<svg version="1.1" id="Layer_1" xmlns="http://www.w3.org/2000/svg" xmlns:xlink="http://www.w3.org/1999/xlink" x="0px" y="0px"
	 viewBox="-169.7 573 282.3 56.2" style="enable-background:new -169.7 573 282.3 56.2;" xml:space="preserve">
<style type="text/css">
	.st0{fill:#FFFFFF;}
</style>
<path class="st0" d="M-147.4,601.3h4c4.3,0,5.7-2.4,5.7-4.7c0-2.4-1.4-4.7-5.7-4.7h-4V601.3z M-156.2,610.8h3.7v-19h-3.7v-4.1h12.7
	c8.1,0,11.1,4.5,11.1,8.9s-3.1,8.9-11.1,8.9h-3.8v5.4h4.6v4.1h-13.4v-4.2H-156.2z"/>
<polygon class="st0" points="-129.9,610.8 -126.3,610.8 -126.3,591.8 -129.9,591.8 -129.9,587.7 -107.5,587.7 -107.5,595.7 
	-112.3,595.7 -112.3,591.8 -121.1,591.8 -121.1,599.2 -110.8,599.2 -110.8,603.3 -121.1,603.3 -121.1,610.8 -112.1,610.8 
	-112.1,606.7 -107.3,606.7 -107.3,614.9 -129.9,614.9 "/>
<path class="st0" d="M-103.8,601.5c0-8.6,5.4-14.3,14.9-14.3c4.4,0,8.4,1.2,10.7,2.4v7h-4.9v-4.2c-1.6-0.5-3.6-0.9-5.7-0.9
	c-6.2,0-9.8,3.8-9.8,9.9c0,6.6,4,9.7,9.8,9.7c2,0,3.8-0.4,5.6-1v-5.8h-5.7v-4h12.8v4h-2.2v8.5c-2.1,1.2-5.9,2.6-10.7,2.6
	C-97.9,615.5-103.8,610.5-103.8,601.5"/>
<path class="st0" d="M-40.7,612.9c4.9,0,8.1-1.8,8.1-5.5c0-3.8-3.5-5.7-8.3-5.7h-5.8v11.2H-40.7z M-42,600.4c5.1,0,8.3-1.9,8.3-5.4
	c0-3.6-3.1-5.3-7.7-5.3h-5.3v10.7H-42L-42,600.4z M-52.6,612.9h4.4v-23.1h-4.4v-1.3h11.2c5.2,0,9.2,2.2,9.2,6.5
	c0,2.6-1.4,5.1-5.4,6.1c4.7,0.7,6.5,3.5,6.5,6.5c0,4.5-4.2,6.7-9.6,6.7h-11.9L-52.6,612.9L-52.6,612.9z"/>
<polygon class="st0" points="-27.6,612.8 -23.2,612.8 -23.2,589.8 -27.6,589.8 -27.6,588.4 -7.4,588.4 -7.4,595.1 -8.9,595.1 
	-8.9,589.8 -21.7,589.8 -21.7,600.5 -9.3,600.5 -9.3,601.9 -21.7,601.9 -21.7,612.8 -8.8,612.8 -8.8,607.6 -7.4,607.6 -7.4,614.2 
	-27.6,614.2 "/>
<polygon class="st0" points="-3.6,612.8 0.8,612.8 0.8,589.8 -3.6,589.8 -3.6,588.4 16.6,588.4 16.6,595.1 15.2,595.1 15.2,589.8 
	2.3,589.8 2.3,600.5 14.8,600.5 14.8,601.9 2.3,601.9 2.3,612.8 15.2,612.8 15.2,607.6 16.6,607.6 16.6,614.2 -3.6,614.2 "/>
<path class="st0" d="M31.8,602.2c5.4,0,8.2-2.2,8.2-6.2c0-4.1-2.8-6.2-8.2-6.2h-5.5v12.4L31.8,602.2L31.8,602.2z M20.4,612.8h4.4
	v-23.1h-4.4v-1.4h11.4c3.4,0,9.8,1,9.8,7.4c0,4.3-2.8,6.6-6.6,7.4l5.2,9.6h4.3v1.4h-5.2l-5.8-10.7c-0.6,0.1-1.1,0.1-1.7,0.1h-5.5
	v9.3h4.4v1.4H20.5L20.4,612.8L20.4,612.8z"/>
<path class="st0" d="M54.5,601.3c0-7.5,4.7-13.4,13.6-13.4c3.2,0,6.2,0.8,8.5,1.9v5.6h-1.5v-4.8c-1.9-0.8-4.5-1.3-6.9-1.3
	c-6.9,0-12.1,4.1-12.1,12.1c0,8.4,5.9,12,12,12c3.3,0,6.4-1.1,8.7-2.4v1.4c-2.1,1.2-5.2,2.3-8.8,2.3
	C60.5,614.7,54.5,609.8,54.5,601.3"/>
<path class="st0" d="M104.7,601.3c0-7.1-4.4-12-11.3-12s-11.4,4.9-11.4,12s4.4,12.1,11.4,12.1C100.2,613.3,104.7,608.4,104.7,601.3
	 M80.4,601.3c0-7.5,4.9-13.4,12.9-13.4s12.9,5.8,12.9,13.4c0,7.5-4.9,13.4-12.9,13.4C85.3,614.7,80.4,608.8,80.4,601.3"/>
<path class="st0" d="M109.8,613.1c0-0.8,0.6-1.4,1.4-1.4s1.4,0.6,1.4,1.4c0,0.8-0.6,1.4-1.4,1.4
	C110.5,614.5,109.8,613.9,109.8,613.1"/>
<path class="st0" d="M-165.5,577.1h98.4V625h-98.4V577.1z M-169.7,572.9v4.2V625v4.2h4.2h98.4h4.2V625v-47.8V573L-169.7,572.9
	L-169.7,572.9z"/>
</svg>
